<svg width="1366" height="230" viewBox="0 0 1366 230" fill="none" xmlns="http://www.w3.org/2000/svg">
<rect width="1366" height="230" fill="#E5E5E5"/>
<g clip-path="url(#clip0)">
<rect width="1366" height="8553" transform="translate(0 -3916)" fill="#F8F8F8"/>
<line x1="2384" y1="85" x2="-163" y2="84.9998" stroke="#D01222" stroke-width="16"/>
<line x1="460" y1="65" x2="460" y2="85" stroke="#D01222" stroke-width="16"/>
<line x1="80" y1="65" x2="80" y2="85" stroke="#D01222" stroke-width="16"/>
<line x1="650" y1="85" x2="650" y2="105" stroke="#D01222" stroke-width="16"/>
<line x1="1056" y1="85" x2="1056" y2="105" stroke="#D01222" stroke-width="16"/>
<line x1="270" y1="85" x2="270" y2="105" stroke="#D01222" stroke-width="16"/>
<line x1="1056" y1="85" x2="1056" y2="105" stroke="#D01222" stroke-width="16"/>
<path d="M1397.5 228C1318.25 228 1254 163.753 1254 84.5" stroke="#D01222" stroke-width="4"/>
<path d="M1397 218C1323.55 218 1264 158.454 1264 85" stroke="#D01222" stroke-width="4"/>
<circle cx="854" cy="85" r="18" fill="white" stroke="#D01222" stroke-width="16"/>
<circle cx="1259" cy="85" r="18" fill="white" stroke="#D01222" stroke-width="16"/>
<path d="M858.884 19.8L848.156 39.744C847.124 41.664 845.876 43.116 844.412 44.1C842.972 45.084 841.4 45.576 839.696 45.576C838.376 45.576 837.008 45.288 835.592 44.712L836.996 40.284C838.004 40.596 838.844 40.752 839.516 40.752C840.236 40.752 840.884 40.584 841.46 40.248C842.036 39.888 842.564 39.336 843.044 38.592L843.26 38.304L833.324 19.8H839.552L846.248 33.336L853.16 19.8H858.884ZM860.485 25.632H866.065V33.192H874.489V25.632H880.105V45H874.489V37.764H866.065V45H860.485V25.632ZM885.481 25.632H891.061V37.152L900.493 25.632H905.641V45H900.061V33.48L890.665 45H885.481V25.632ZM925.836 34.884C928.116 35.652 929.256 37.188 929.256 39.492C929.256 41.244 928.596 42.6 927.276 43.56C925.956 44.52 923.988 45 921.372 45H911.04V25.632H920.94C923.364 25.632 925.26 26.076 926.628 26.964C927.996 27.828 928.68 29.052 928.68 30.636C928.68 31.596 928.428 32.448 927.924 33.192C927.444 33.912 926.748 34.476 925.836 34.884ZM916.188 33.588H920.436C922.404 33.588 923.388 32.892 923.388 31.5C923.388 30.132 922.404 29.448 920.436 29.448H916.188V33.588ZM920.904 41.184C922.968 41.184 924 40.476 924 39.06C924 38.316 923.76 37.776 923.28 37.44C922.8 37.08 922.044 36.9 921.012 36.9H916.188V41.184H920.904ZM952.262 35.388C952.262 35.46 952.226 35.964 952.154 36.9H937.502C937.766 38.1 938.39 39.048 939.374 39.744C940.358 40.44 941.582 40.788 943.046 40.788C944.054 40.788 944.942 40.644 945.71 40.356C946.502 40.044 947.234 39.564 947.906 38.916L950.894 42.156C949.07 44.244 946.406 45.288 942.902 45.288C940.718 45.288 938.786 44.868 937.106 44.028C935.426 43.164 934.13 41.976 933.218 40.464C932.306 38.952 931.85 37.236 931.85 35.316C931.85 33.42 932.294 31.716 933.182 30.204C934.094 28.668 935.33 27.48 936.89 26.64C938.474 25.776 940.238 25.344 942.182 25.344C944.078 25.344 945.794 25.752 947.33 26.568C948.866 27.384 950.066 28.56 950.93 30.096C951.818 31.608 952.262 33.372 952.262 35.388ZM942.218 29.592C940.946 29.592 939.878 29.952 939.014 30.672C938.15 31.392 937.622 32.376 937.43 33.624H946.97C946.778 32.4 946.25 31.428 945.386 30.708C944.522 29.964 943.466 29.592 942.218 29.592ZM967.979 25.344C969.779 25.344 971.411 25.764 972.875 26.604C974.363 27.42 975.527 28.584 976.367 30.096C977.207 31.584 977.627 33.324 977.627 35.316C977.627 37.308 977.207 39.06 976.367 40.572C975.527 42.06 974.363 43.224 972.875 44.064C971.411 44.88 969.779 45.288 967.979 45.288C965.507 45.288 963.563 44.508 962.147 42.948V51.984H956.531V25.632H961.895V27.864C963.287 26.184 965.315 25.344 967.979 25.344ZM967.007 40.68C968.447 40.68 969.623 40.2 970.535 39.24C971.471 38.256 971.939 36.948 971.939 35.316C971.939 33.684 971.471 32.388 970.535 31.428C969.623 30.444 968.447 29.952 967.007 29.952C965.567 29.952 964.379 30.444 963.443 31.428C962.531 32.388 962.075 33.684 962.075 35.316C962.075 36.948 962.531 38.256 963.443 39.24C964.379 40.2 965.567 40.68 967.007 40.68ZM990.779 45.288C988.715 45.288 986.855 44.868 985.199 44.028C983.567 43.164 982.283 41.976 981.347 40.464C980.435 38.952 979.979 37.236 979.979 35.316C979.979 33.396 980.435 31.68 981.347 30.168C982.283 28.656 983.567 27.48 985.199 26.64C986.855 25.776 988.715 25.344 990.779 25.344C992.819 25.344 994.595 25.776 996.107 26.64C997.643 27.48 998.759 28.692 999.455 30.276L995.099 32.616C994.091 30.84 992.639 29.952 990.743 29.952C989.279 29.952 988.067 30.432 987.107 31.392C986.147 32.352 985.667 33.66 985.667 35.316C985.667 36.972 986.147 38.28 987.107 39.24C988.067 40.2 989.279 40.68 990.743 40.68C992.663 40.68 994.115 39.792 995.099 38.016L999.455 40.392C998.759 41.928 997.643 43.128 996.107 43.992C994.595 44.856 992.819 45.288 990.779 45.288ZM1002.87 25.632H1008.45V37.152L1017.88 25.632H1023.03V45H1017.45V33.48L1008.05 45H1002.87V25.632ZM1044.7 30.24H1038.15V45H1032.57V30.24H1026.01V25.632H1044.7V30.24ZM1065.71 35.388C1065.71 35.46 1065.68 35.964 1065.6 36.9H1050.95C1051.22 38.1 1051.84 39.048 1052.82 39.744C1053.81 40.44 1055.03 40.788 1056.5 40.788C1057.5 40.788 1058.39 40.644 1059.16 40.356C1059.95 40.044 1060.68 39.564 1061.36 38.916L1064.34 42.156C1062.52 44.244 1059.86 45.288 1056.35 45.288C1054.17 45.288 1052.24 44.868 1050.56 44.028C1048.88 43.164 1047.58 41.976 1046.67 40.464C1045.76 38.952 1045.3 37.236 1045.3 35.316C1045.3 33.42 1045.74 31.716 1046.63 30.204C1047.54 28.668 1048.78 27.48 1050.34 26.64C1051.92 25.776 1053.69 25.344 1055.63 25.344C1057.53 25.344 1059.24 25.752 1060.78 26.568C1062.32 27.384 1063.52 28.56 1064.38 30.096C1065.27 31.608 1065.71 33.372 1065.71 35.388ZM1055.67 29.592C1054.4 29.592 1053.33 29.952 1052.46 30.672C1051.6 31.392 1051.07 32.376 1050.88 33.624H1060.42C1060.23 32.4 1059.7 31.428 1058.84 30.708C1057.97 29.964 1056.92 29.592 1055.67 29.592ZM1085.62 30.24H1079.07V45H1073.49V30.24H1066.94V25.632H1085.62V30.24Z" fill="#181818"/>
<path d="M654.924 120.4V133H652.62V122.38H646.086V133H643.782V120.4H654.924ZM663.553 123.28C664.489 123.28 665.323 123.484 666.055 123.892C666.799 124.3 667.381 124.876 667.801 125.62C668.221 126.364 668.431 127.222 668.431 128.194C668.431 129.166 668.221 130.03 667.801 130.786C667.381 131.53 666.799 132.106 666.055 132.514C665.323 132.922 664.489 133.126 663.553 133.126C662.257 133.126 661.231 132.694 660.475 131.83V136.492H658.225V123.388H660.367V124.648C660.739 124.192 661.195 123.85 661.735 123.622C662.287 123.394 662.893 123.28 663.553 123.28ZM663.301 131.2C664.129 131.2 664.807 130.924 665.335 130.372C665.875 129.82 666.145 129.094 666.145 128.194C666.145 127.294 665.875 126.568 665.335 126.016C664.807 125.464 664.129 125.188 663.301 125.188C662.761 125.188 662.275 125.314 661.843 125.566C661.411 125.806 661.069 126.154 660.817 126.61C660.565 127.066 660.439 127.594 660.439 128.194C660.439 128.794 660.565 129.322 660.817 129.778C661.069 130.234 661.411 130.588 661.843 130.84C662.275 131.08 662.761 131.2 663.301 131.2ZM674.954 133.126C673.982 133.126 673.106 132.916 672.326 132.496C671.546 132.076 670.934 131.494 670.49 130.75C670.058 129.994 669.842 129.142 669.842 128.194C669.842 127.246 670.058 126.4 670.49 125.656C670.934 124.912 671.546 124.33 672.326 123.91C673.106 123.49 673.982 123.28 674.954 123.28C675.938 123.28 676.82 123.49 677.6 123.91C678.38 124.33 678.986 124.912 679.418 125.656C679.862 126.4 680.084 127.246 680.084 128.194C680.084 129.142 679.862 129.994 679.418 130.75C678.986 131.494 678.38 132.076 677.6 132.496C676.82 132.916 675.938 133.126 674.954 133.126ZM674.954 131.2C675.782 131.2 676.466 130.924 677.006 130.372C677.546 129.82 677.816 129.094 677.816 128.194C677.816 127.294 677.546 126.568 677.006 126.016C676.466 125.464 675.782 125.188 674.954 125.188C674.126 125.188 673.442 125.464 672.902 126.016C672.374 126.568 672.11 127.294 672.11 128.194C672.11 129.094 672.374 129.82 672.902 130.372C673.442 130.924 674.126 131.2 674.954 131.2ZM686.681 133.126C685.685 133.126 684.791 132.916 683.999 132.496C683.207 132.076 682.589 131.494 682.145 130.75C681.701 129.994 681.479 129.142 681.479 128.194C681.479 127.246 681.701 126.4 682.145 125.656C682.589 124.912 683.201 124.33 683.981 123.91C684.773 123.49 685.673 123.28 686.681 123.28C687.629 123.28 688.457 123.472 689.165 123.856C689.885 124.24 690.425 124.792 690.785 125.512L689.057 126.52C688.781 126.076 688.433 125.746 688.013 125.53C687.605 125.302 687.155 125.188 686.663 125.188C685.823 125.188 685.127 125.464 684.575 126.016C684.023 126.556 683.747 127.282 683.747 128.194C683.747 129.106 684.017 129.838 684.557 130.39C685.109 130.93 685.811 131.2 686.663 131.2C687.155 131.2 687.605 131.092 688.013 130.876C688.433 130.648 688.781 130.312 689.057 129.868L690.785 130.876C690.413 131.596 689.867 132.154 689.147 132.55C688.439 132.934 687.617 133.126 686.681 133.126ZM701.982 123.388V133H699.75V125.296H695.016V133H692.766V123.388H701.982ZM714.018 128.248C714.018 128.404 714.006 128.626 713.982 128.914H706.44C706.572 129.622 706.914 130.186 707.466 130.606C708.03 131.014 708.726 131.218 709.554 131.218C710.61 131.218 711.48 130.87 712.164 130.174L713.37 131.56C712.938 132.076 712.392 132.466 711.732 132.73C711.072 132.994 710.328 133.126 709.5 133.126C708.444 133.126 707.514 132.916 706.71 132.496C705.906 132.076 705.282 131.494 704.838 130.75C704.406 129.994 704.19 129.142 704.19 128.194C704.19 127.258 704.4 126.418 704.82 125.674C705.252 124.918 705.846 124.33 706.602 123.91C707.358 123.49 708.21 123.28 709.158 123.28C710.094 123.28 710.928 123.49 711.66 123.91C712.404 124.318 712.98 124.9 713.388 125.656C713.808 126.4 714.018 127.264 714.018 128.248ZM709.158 125.08C708.438 125.08 707.826 125.296 707.322 125.728C706.83 126.148 706.53 126.712 706.422 127.42H711.876C711.78 126.724 711.486 126.16 710.994 125.728C710.502 125.296 709.89 125.08 709.158 125.08ZM720.475 129.148H718.729V133H716.479V123.388H718.729V127.276H720.529L723.373 123.388H725.785L722.293 128.014L726.019 133H723.373L720.475 129.148ZM735.097 125.296H731.731V133H729.481V125.296H726.097V123.388H735.097V125.296ZM750.253 126.448C751.057 126.664 751.669 127.036 752.089 127.564C752.509 128.08 752.719 128.728 752.719 129.508C752.719 130.612 752.311 131.47 751.495 132.082C750.679 132.694 749.497 133 747.949 133H741.973V120.4H747.607C749.023 120.4 750.127 120.682 750.919 121.246C751.711 121.81 752.107 122.608 752.107 123.64C752.107 124.3 751.945 124.87 751.621 125.35C751.309 125.83 750.853 126.196 750.253 126.448ZM744.277 125.782H747.409C748.165 125.782 748.741 125.632 749.137 125.332C749.533 125.032 749.731 124.588 749.731 124C749.731 123.412 749.533 122.968 749.137 122.668C748.741 122.356 748.165 122.2 747.409 122.2H744.277V125.782ZM747.877 131.2C749.533 131.2 750.361 130.576 750.361 129.328C750.361 128.104 749.533 127.492 747.877 127.492H744.277V131.2H747.877ZM764.133 128.248C764.133 128.404 764.121 128.626 764.097 128.914H756.555C756.687 129.622 757.029 130.186 757.581 130.606C758.145 131.014 758.841 131.218 759.669 131.218C760.725 131.218 761.595 130.87 762.279 130.174L763.485 131.56C763.053 132.076 762.507 132.466 761.847 132.73C761.187 132.994 760.443 133.126 759.615 133.126C758.559 133.126 757.629 132.916 756.825 132.496C756.021 132.076 755.397 131.494 754.953 130.75C754.521 129.994 754.305 129.142 754.305 128.194C754.305 127.258 754.515 126.418 754.935 125.674C755.367 124.918 755.961 124.33 756.717 123.91C757.473 123.49 758.325 123.28 759.273 123.28C760.209 123.28 761.043 123.49 761.775 123.91C762.519 124.318 763.095 124.9 763.503 125.656C763.923 126.4 764.133 127.264 764.133 128.248ZM759.273 125.08C758.553 125.08 757.941 125.296 757.437 125.728C756.945 126.148 756.645 126.712 756.537 127.42H761.991C761.895 126.724 761.601 126.16 761.109 125.728C760.617 125.296 760.005 125.08 759.273 125.08ZM771.922 123.28C772.858 123.28 773.692 123.484 774.424 123.892C775.168 124.3 775.75 124.876 776.17 125.62C776.59 126.364 776.8 127.222 776.8 128.194C776.8 129.166 776.59 130.03 776.17 130.786C775.75 131.53 775.168 132.106 774.424 132.514C773.692 132.922 772.858 133.126 771.922 133.126C770.626 133.126 769.6 132.694 768.844 131.83V136.492H766.594V123.388H768.736V124.648C769.108 124.192 769.564 123.85 770.104 123.622C770.656 123.394 771.262 123.28 771.922 123.28ZM771.67 131.2C772.498 131.2 773.176 130.924 773.704 130.372C774.244 129.82 774.514 129.094 774.514 128.194C774.514 127.294 774.244 126.568 773.704 126.016C773.176 125.464 772.498 125.188 771.67 125.188C771.13 125.188 770.644 125.314 770.212 125.566C769.78 125.806 769.438 126.154 769.186 126.61C768.934 127.066 768.808 127.594 768.808 128.194C768.808 128.794 768.934 129.322 769.186 129.778C769.438 130.234 769.78 130.588 770.212 130.84C770.644 131.08 771.13 131.2 771.67 131.2ZM779.039 123.388H781.289V127.294H786.131V123.388H788.381V133H786.131V129.202H781.289V133H779.039V123.388ZM794.979 123.28C796.395 123.28 797.475 123.622 798.219 124.306C798.975 124.978 799.353 125.998 799.353 127.366V133H797.229V131.83C796.953 132.25 796.557 132.574 796.041 132.802C795.537 133.018 794.925 133.126 794.205 133.126C793.485 133.126 792.855 133.006 792.315 132.766C791.775 132.514 791.355 132.172 791.055 131.74C790.767 131.296 790.623 130.798 790.623 130.246C790.623 129.382 790.941 128.692 791.577 128.176C792.225 127.648 793.239 127.384 794.619 127.384H797.103V127.24C797.103 126.568 796.899 126.052 796.491 125.692C796.095 125.332 795.501 125.152 794.709 125.152C794.169 125.152 793.635 125.236 793.107 125.404C792.591 125.572 792.153 125.806 791.793 126.106L790.911 124.468C791.415 124.084 792.021 123.79 792.729 123.586C793.437 123.382 794.187 123.28 794.979 123.28ZM794.673 131.488C795.237 131.488 795.735 131.362 796.167 131.11C796.611 130.846 796.923 130.474 797.103 129.994V128.878H794.781C793.485 128.878 792.837 129.304 792.837 130.156C792.837 130.564 792.999 130.888 793.323 131.128C793.647 131.368 794.097 131.488 794.673 131.488ZM812.397 131.092V135.142H810.291V133H802.875V135.142H800.787V131.092H801.237C801.849 131.068 802.263 130.678 802.479 129.922C802.707 129.154 802.857 128.074 802.929 126.682L803.055 123.388H810.975V131.092H812.397ZM804.981 126.844C804.933 127.948 804.843 128.848 804.711 129.544C804.579 130.24 804.339 130.756 803.991 131.092H808.725V125.296H805.035L804.981 126.844ZM818.781 133.126C817.785 133.126 816.891 132.916 816.099 132.496C815.307 132.076 814.689 131.494 814.245 130.75C813.801 129.994 813.579 129.142 813.579 128.194C813.579 127.246 813.801 126.4 814.245 125.656C814.689 124.912 815.301 124.33 816.081 123.91C816.873 123.49 817.773 123.28 818.781 123.28C819.729 123.28 820.557 123.472 821.265 123.856C821.985 124.24 822.525 124.792 822.885 125.512L821.157 126.52C820.881 126.076 820.533 125.746 820.113 125.53C819.705 125.302 819.255 125.188 818.763 125.188C817.923 125.188 817.227 125.464 816.675 126.016C816.123 126.556 815.847 127.282 815.847 128.194C815.847 129.106 816.117 129.838 816.657 130.39C817.209 130.93 817.911 131.2 818.763 131.2C819.255 131.2 819.705 131.092 820.113 130.876C820.533 130.648 820.881 130.312 821.157 129.868L822.885 130.876C822.513 131.596 821.967 132.154 821.247 132.55C820.539 132.934 819.717 133.126 818.781 133.126ZM828.862 129.148H827.116V133H824.866V123.388H827.116V127.276H828.916L831.76 123.388H834.172L830.68 128.014L834.406 133H831.76L828.862 129.148ZM839.96 133.126C838.988 133.126 838.112 132.916 837.332 132.496C836.552 132.076 835.94 131.494 835.496 130.75C835.064 129.994 834.848 129.142 834.848 128.194C834.848 127.246 835.064 126.4 835.496 125.656C835.94 124.912 836.552 124.33 837.332 123.91C838.112 123.49 838.988 123.28 839.96 123.28C840.944 123.28 841.826 123.49 842.606 123.91C843.386 124.33 843.992 124.912 844.424 125.656C844.868 126.4 845.09 127.246 845.09 128.194C845.09 129.142 844.868 129.994 844.424 130.75C843.992 131.494 843.386 132.076 842.606 132.496C841.826 132.916 840.944 133.126 839.96 133.126ZM839.96 131.2C840.788 131.2 841.472 130.924 842.012 130.372C842.552 129.82 842.822 129.094 842.822 128.194C842.822 127.294 842.552 126.568 842.012 126.016C841.472 125.464 840.788 125.188 839.96 125.188C839.132 125.188 838.448 125.464 837.908 126.016C837.38 126.568 837.116 127.294 837.116 128.194C837.116 129.094 837.38 129.82 837.908 130.372C838.448 130.924 839.132 131.2 839.96 131.2ZM854.693 125.296H849.563V133H847.313V123.388H854.693V125.296ZM860.192 133.126C859.22 133.126 858.344 132.916 857.564 132.496C856.784 132.076 856.172 131.494 855.728 130.75C855.296 129.994 855.08 129.142 855.08 128.194C855.08 127.246 855.296 126.4 855.728 125.656C856.172 124.912 856.784 124.33 857.564 123.91C858.344 123.49 859.22 123.28 860.192 123.28C861.176 123.28 862.058 123.49 862.838 123.91C863.618 124.33 864.224 124.912 864.656 125.656C865.1 126.4 865.322 127.246 865.322 128.194C865.322 129.142 865.1 129.994 864.656 130.75C864.224 131.494 863.618 132.076 862.838 132.496C862.058 132.916 861.176 133.126 860.192 133.126ZM860.192 131.2C861.02 131.2 861.704 130.924 862.244 130.372C862.784 129.82 863.054 129.094 863.054 128.194C863.054 127.294 862.784 126.568 862.244 126.016C861.704 125.464 861.02 125.188 860.192 125.188C859.364 125.188 858.68 125.464 858.14 126.016C857.612 126.568 857.348 127.294 857.348 128.194C857.348 129.094 857.612 129.82 858.14 130.372C858.68 130.924 859.364 131.2 860.192 131.2Z" fill="#A0A0A0"/>
<path d="M464.546 32.22C465.782 32.22 466.892 32.502 467.876 33.066C468.872 33.618 469.652 34.386 470.216 35.37C470.78 36.354 471.062 37.464 471.062 38.7C471.062 39.936 470.78 41.046 470.216 42.03C469.652 43.014 468.872 43.788 467.876 44.352C466.892 44.904 465.782 45.18 464.546 45.18C463.418 45.18 462.386 44.946 461.45 44.478C460.526 44.01 459.764 43.356 459.164 42.516C458.576 41.676 458.21 40.722 458.066 39.654H456.086V45H453.782V32.4H456.086V37.566H458.102C458.27 36.522 458.648 35.598 459.236 34.794C459.836 33.978 460.592 33.348 461.504 32.904C462.428 32.448 463.442 32.22 464.546 32.22ZM464.546 43.128C465.326 43.128 466.034 42.942 466.67 42.57C467.306 42.198 467.804 41.676 468.164 41.004C468.524 40.332 468.704 39.564 468.704 38.7C468.704 37.836 468.524 37.068 468.164 36.396C467.804 35.724 467.306 35.202 466.67 34.83C466.034 34.458 465.326 34.272 464.546 34.272C463.766 34.272 463.058 34.458 462.422 34.83C461.798 35.202 461.3 35.724 460.928 36.396C460.568 37.068 460.388 37.836 460.388 38.7C460.388 39.564 460.568 40.332 460.928 41.004C461.3 41.676 461.798 42.198 462.422 42.57C463.058 42.942 463.766 43.128 464.546 43.128ZM480.808 37.296H475.678V45H473.428V35.388H480.808V37.296ZM486.308 45.126C485.336 45.126 484.46 44.916 483.68 44.496C482.9 44.076 482.288 43.494 481.844 42.75C481.412 41.994 481.196 41.142 481.196 40.194C481.196 39.246 481.412 38.4 481.844 37.656C482.288 36.912 482.9 36.33 483.68 35.91C484.46 35.49 485.336 35.28 486.308 35.28C487.292 35.28 488.174 35.49 488.954 35.91C489.734 36.33 490.34 36.912 490.772 37.656C491.216 38.4 491.438 39.246 491.438 40.194C491.438 41.142 491.216 41.994 490.772 42.75C490.34 43.494 489.734 44.076 488.954 44.496C488.174 44.916 487.292 45.126 486.308 45.126ZM486.308 43.2C487.136 43.2 487.82 42.924 488.36 42.372C488.9 41.82 489.17 41.094 489.17 40.194C489.17 39.294 488.9 38.568 488.36 38.016C487.82 37.464 487.136 37.188 486.308 37.188C485.48 37.188 484.796 37.464 484.256 38.016C483.728 38.568 483.464 39.294 483.464 40.194C483.464 41.094 483.728 41.82 484.256 42.372C484.796 42.924 485.48 43.2 486.308 43.2ZM493.314 39.06H498.264V40.932H493.314V39.06ZM507.462 38.43C508.218 38.67 508.806 39.06 509.226 39.6C509.658 40.128 509.874 40.752 509.874 41.472C509.874 42.228 509.628 42.888 509.136 43.452C508.644 44.004 507.984 44.43 507.156 44.73C506.34 45.03 505.446 45.18 504.474 45.18C503.634 45.18 502.788 45.066 501.936 44.838C501.096 44.598 500.316 44.244 499.596 43.776L500.352 42.066C500.904 42.438 501.516 42.726 502.188 42.93C502.86 43.122 503.526 43.218 504.186 43.218C505.134 43.218 505.92 43.032 506.544 42.66C507.18 42.288 507.498 41.778 507.498 41.13C507.498 40.578 507.27 40.158 506.814 39.87C506.358 39.582 505.728 39.438 504.924 39.438H501.99V37.602H504.744C505.44 37.602 505.986 37.458 506.382 37.17C506.778 36.882 506.976 36.492 506.976 36C506.976 35.412 506.706 34.956 506.166 34.632C505.638 34.308 504.96 34.146 504.132 34.146C503.568 34.146 502.986 34.23 502.386 34.398C501.786 34.554 501.222 34.788 500.694 35.1L499.956 33.21C500.604 32.862 501.288 32.604 502.008 32.436C502.74 32.256 503.466 32.166 504.186 32.166C505.122 32.166 505.98 32.31 506.76 32.598C507.552 32.886 508.182 33.3 508.65 33.84C509.118 34.368 509.352 34.992 509.352 35.712C509.352 36.336 509.184 36.882 508.848 37.35C508.512 37.818 508.05 38.178 507.462 38.43ZM515.858 35.28C517.274 35.28 518.354 35.622 519.098 36.306C519.854 36.978 520.232 37.998 520.232 39.366V45H518.108V43.83C517.832 44.25 517.436 44.574 516.92 44.802C516.416 45.018 515.804 45.126 515.084 45.126C514.364 45.126 513.734 45.006 513.194 44.766C512.654 44.514 512.234 44.172 511.934 43.74C511.646 43.296 511.502 42.798 511.502 42.246C511.502 41.382 511.82 40.692 512.456 40.176C513.104 39.648 514.118 39.384 515.498 39.384H517.982V39.24C517.982 38.568 517.778 38.052 517.37 37.692C516.974 37.332 516.38 37.152 515.588 37.152C515.048 37.152 514.514 37.236 513.986 37.404C513.47 37.572 513.032 37.806 512.672 38.106L511.79 36.468C512.294 36.084 512.9 35.79 513.608 35.586C514.316 35.382 515.066 35.28 515.858 35.28ZM515.552 43.488C516.116 43.488 516.614 43.362 517.046 43.11C517.49 42.846 517.802 42.474 517.982 41.994V40.878H515.66C514.364 40.878 513.716 41.304 513.716 42.156C513.716 42.564 513.878 42.888 514.202 43.128C514.526 43.368 514.976 43.488 515.552 43.488ZM532.232 35.388V45H530V37.296H525.266V45H523.016V35.388H532.232ZM538.85 35.28C540.266 35.28 541.346 35.622 542.09 36.306C542.846 36.978 543.224 37.998 543.224 39.366V45H541.1V43.83C540.824 44.25 540.428 44.574 539.912 44.802C539.408 45.018 538.796 45.126 538.076 45.126C537.356 45.126 536.726 45.006 536.186 44.766C535.646 44.514 535.226 44.172 534.926 43.74C534.638 43.296 534.494 42.798 534.494 42.246C534.494 41.382 534.812 40.692 535.448 40.176C536.096 39.648 537.11 39.384 538.49 39.384H540.974V39.24C540.974 38.568 540.77 38.052 540.362 37.692C539.966 37.332 539.372 37.152 538.58 37.152C538.04 37.152 537.506 37.236 536.978 37.404C536.462 37.572 536.024 37.806 535.664 38.106L534.782 36.468C535.286 36.084 535.892 35.79 536.6 35.586C537.308 35.382 538.058 35.28 538.85 35.28ZM538.544 43.488C539.108 43.488 539.606 43.362 540.038 43.11C540.482 42.846 540.794 42.474 540.974 41.994V40.878H538.652C537.356 40.878 536.708 41.304 536.708 42.156C536.708 42.564 536.87 42.888 537.194 43.128C537.518 43.368 537.968 43.488 538.544 43.488ZM556.268 43.092V47.142H554.162V45H546.746V47.142H544.658V43.092H545.108C545.72 43.068 546.134 42.678 546.35 41.922C546.578 41.154 546.728 40.074 546.8 38.682L546.926 35.388H554.846V43.092H556.268ZM548.852 38.844C548.804 39.948 548.714 40.848 548.582 41.544C548.45 42.24 548.21 42.756 547.862 43.092H552.596V37.296H548.906L548.852 38.844ZM558.278 35.388H560.528V39.294H565.37V35.388H567.62V45H565.37V41.202H560.528V45H558.278V35.388ZM574.217 35.28C575.633 35.28 576.713 35.622 577.457 36.306C578.213 36.978 578.591 37.998 578.591 39.366V45H576.467V43.83C576.191 44.25 575.795 44.574 575.279 44.802C574.775 45.018 574.163 45.126 573.443 45.126C572.723 45.126 572.093 45.006 571.553 44.766C571.013 44.514 570.593 44.172 570.293 43.74C570.005 43.296 569.861 42.798 569.861 42.246C569.861 41.382 570.179 40.692 570.815 40.176C571.463 39.648 572.477 39.384 573.857 39.384H576.341V39.24C576.341 38.568 576.137 38.052 575.729 37.692C575.333 37.332 574.739 37.152 573.947 37.152C573.407 37.152 572.873 37.236 572.345 37.404C571.829 37.572 571.391 37.806 571.031 38.106L570.149 36.468C570.653 36.084 571.259 35.79 571.967 35.586C572.675 35.382 573.425 35.28 574.217 35.28ZM573.911 43.488C574.475 43.488 574.973 43.362 575.405 43.11C575.849 42.846 576.161 42.474 576.341 41.994V40.878H574.019C572.723 40.878 572.075 41.304 572.075 42.156C572.075 42.564 572.237 42.888 572.561 43.128C572.885 43.368 573.335 43.488 573.911 43.488ZM589.493 35.388V45H587.477V42.102H584.939L582.977 45H580.565L582.833 41.796C582.137 41.556 581.603 41.19 581.231 40.698C580.871 40.194 580.691 39.576 580.691 38.844C580.691 37.74 581.081 36.888 581.861 36.288C582.641 35.688 583.715 35.388 585.083 35.388H589.493ZM585.155 37.278C583.703 37.278 582.977 37.824 582.977 38.916C582.977 39.996 583.679 40.536 585.083 40.536H587.477V37.278H585.155Z" fill="#A0A0A0"/>
<path d="M1255.56 45.18C1254.29 45.18 1253.14 44.904 1252.1 44.352C1251.08 43.788 1250.28 43.014 1249.69 42.03C1249.12 41.046 1248.83 39.936 1248.83 38.7C1248.83 37.464 1249.12 36.354 1249.71 35.37C1250.3 34.386 1251.1 33.618 1252.12 33.066C1253.15 32.502 1254.31 32.22 1255.58 32.22C1256.61 32.22 1257.55 32.4 1258.4 32.76C1259.26 33.12 1259.98 33.642 1260.56 34.326L1259.05 35.748C1258.14 34.764 1257.02 34.272 1255.69 34.272C1254.82 34.272 1254.05 34.464 1253.36 34.848C1252.68 35.22 1252.15 35.742 1251.76 36.414C1251.38 37.086 1251.19 37.848 1251.19 38.7C1251.19 39.552 1251.38 40.314 1251.76 40.986C1252.15 41.658 1252.68 42.186 1253.36 42.57C1254.05 42.942 1254.82 43.128 1255.69 43.128C1257.02 43.128 1258.14 42.63 1259.05 41.634L1260.56 43.074C1259.98 43.758 1259.25 44.28 1258.39 44.64C1257.53 45 1256.59 45.18 1255.56 45.18ZM1271.7 35.388V45H1269.47V37.296H1264.73V45H1262.48V35.388H1271.7ZM1279.02 45.126C1278.05 45.126 1277.17 44.916 1276.39 44.496C1275.61 44.076 1275 43.494 1274.56 42.75C1274.12 41.994 1273.91 41.142 1273.91 40.194C1273.91 39.246 1274.12 38.4 1274.56 37.656C1275 36.912 1275.61 36.33 1276.39 35.91C1277.17 35.49 1278.05 35.28 1279.02 35.28C1280 35.28 1280.89 35.49 1281.67 35.91C1282.45 36.33 1283.05 36.912 1283.48 37.656C1283.93 38.4 1284.15 39.246 1284.15 40.194C1284.15 41.142 1283.93 41.994 1283.48 42.75C1283.05 43.494 1282.45 44.076 1281.67 44.496C1280.89 44.916 1280 45.126 1279.02 45.126ZM1279.02 43.2C1279.85 43.2 1280.53 42.924 1281.07 42.372C1281.61 41.82 1281.88 41.094 1281.88 40.194C1281.88 39.294 1281.61 38.568 1281.07 38.016C1280.53 37.464 1279.85 37.188 1279.02 37.188C1278.19 37.188 1277.51 37.464 1276.97 38.016C1276.44 38.568 1276.18 39.294 1276.18 40.194C1276.18 41.094 1276.44 41.82 1276.97 42.372C1277.51 42.924 1278.19 43.2 1279.02 43.2ZM1291.7 35.28C1292.64 35.28 1293.47 35.484 1294.2 35.892C1294.95 36.3 1295.53 36.876 1295.95 37.62C1296.37 38.364 1296.58 39.222 1296.58 40.194C1296.58 41.166 1296.37 42.03 1295.95 42.786C1295.53 43.53 1294.95 44.106 1294.2 44.514C1293.47 44.922 1292.64 45.126 1291.7 45.126C1290.41 45.126 1289.38 44.694 1288.62 43.83V48.492H1286.37V35.388H1288.52V36.648C1288.89 36.192 1289.34 35.85 1289.88 35.622C1290.44 35.394 1291.04 35.28 1291.7 35.28ZM1291.45 43.2C1292.28 43.2 1292.96 42.924 1293.48 42.372C1294.02 41.82 1294.29 41.094 1294.29 40.194C1294.29 39.294 1294.02 38.568 1293.48 38.016C1292.96 37.464 1292.28 37.188 1291.45 37.188C1290.91 37.188 1290.42 37.314 1289.99 37.566C1289.56 37.806 1289.22 38.154 1288.97 38.61C1288.71 39.066 1288.59 39.594 1288.59 40.194C1288.59 40.794 1288.71 41.322 1288.97 41.778C1289.22 42.234 1289.56 42.588 1289.99 42.84C1290.42 43.08 1290.91 43.2 1291.45 43.2ZM1306.08 37.296H1302.72V45H1300.47V37.296H1297.08V35.388H1306.08V37.296ZM1307.71 35.388H1309.96V41.724L1315.27 35.388H1317.33V45H1315.08V38.664L1309.78 45H1307.71V35.388ZM1327.32 39.996C1328.51 40.356 1329.1 41.124 1329.1 42.3C1329.1 43.164 1328.78 43.83 1328.13 44.298C1327.48 44.766 1326.52 45 1325.25 45H1320.35V35.388H1325.05C1326.23 35.388 1327.14 35.604 1327.8 36.036C1328.46 36.468 1328.79 37.08 1328.79 37.872C1328.79 38.364 1328.66 38.79 1328.4 39.15C1328.15 39.51 1327.79 39.792 1327.32 39.996ZM1322.49 39.402H1324.85C1326.02 39.402 1326.6 39 1326.6 38.196C1326.6 37.416 1326.02 37.026 1324.85 37.026H1322.49V39.402ZM1325.07 43.362C1326.3 43.362 1326.92 42.96 1326.92 42.156C1326.92 41.736 1326.78 41.424 1326.49 41.22C1326.2 41.004 1325.75 40.896 1325.14 40.896H1322.49V43.362H1325.07ZM1331.5 35.388H1333.75V39.294H1338.59V35.388H1340.84V45H1338.59V41.202H1333.75V45H1331.5V35.388ZM1347.44 35.28C1348.85 35.28 1349.93 35.622 1350.68 36.306C1351.43 36.978 1351.81 37.998 1351.81 39.366V45H1349.69V43.83C1349.41 44.25 1349.01 44.574 1348.5 44.802C1347.99 45.018 1347.38 45.126 1346.66 45.126C1345.94 45.126 1345.31 45.006 1344.77 44.766C1344.23 44.514 1343.81 44.172 1343.51 43.74C1343.22 43.296 1343.08 42.798 1343.08 42.246C1343.08 41.382 1343.4 40.692 1344.03 40.176C1344.68 39.648 1345.7 39.384 1347.08 39.384H1349.56V39.24C1349.56 38.568 1349.36 38.052 1348.95 37.692C1348.55 37.332 1347.96 37.152 1347.17 37.152C1346.63 37.152 1346.09 37.236 1345.56 37.404C1345.05 37.572 1344.61 37.806 1344.25 38.106L1343.37 36.468C1343.87 36.084 1344.48 35.79 1345.19 35.586C1345.89 35.382 1346.64 35.28 1347.44 35.28ZM1347.13 43.488C1347.69 43.488 1348.19 43.362 1348.62 43.11C1349.07 42.846 1349.38 42.474 1349.56 41.994V40.878H1347.24C1345.94 40.878 1345.29 41.304 1345.29 42.156C1345.29 42.564 1345.46 42.888 1345.78 43.128C1346.1 43.368 1346.55 43.488 1347.13 43.488ZM1362.71 35.388V45H1360.7V42.102H1358.16L1356.2 45H1353.78L1356.05 41.796C1355.36 41.556 1354.82 41.19 1354.45 40.698C1354.09 40.194 1353.91 39.576 1353.91 38.844C1353.91 37.74 1354.3 36.888 1355.08 36.288C1355.86 35.688 1356.93 35.388 1358.3 35.388H1362.71ZM1358.37 37.278C1356.92 37.278 1356.2 37.824 1356.2 38.916C1356.2 39.996 1356.9 40.536 1358.3 40.536H1360.7V37.278H1358.37Z" fill="#A0A0A0"/>
<path d="M1292.74 122.2V132H1290.95V123.74H1287.09L1287 126.19C1286.96 127.562 1286.85 128.677 1286.67 129.536C1286.49 130.385 1286.21 131.034 1285.81 131.482C1285.42 131.921 1284.88 132.14 1284.19 132.14C1283.95 132.14 1283.62 132.093 1283.2 132L1283.32 130.418C1283.44 130.455 1283.58 130.474 1283.74 130.474C1284.31 130.474 1284.71 130.138 1284.95 129.466C1285.19 128.785 1285.34 127.716 1285.39 126.26L1285.53 122.2H1292.74ZM1302.36 124.524L1298.86 132.602C1298.53 133.414 1298.14 133.983 1297.67 134.31C1297.2 134.646 1296.64 134.814 1295.98 134.814C1295.6 134.814 1295.23 134.753 1294.87 134.632C1294.51 134.511 1294.21 134.343 1293.97 134.128L1294.67 132.84C1294.84 132.999 1295.04 133.125 1295.26 133.218C1295.5 133.311 1295.73 133.358 1295.96 133.358C1296.27 133.358 1296.52 133.279 1296.72 133.12C1296.92 132.961 1297.11 132.695 1297.28 132.322L1297.4 132.028L1294.14 124.524H1295.96L1298.31 130.054L1300.68 124.524H1302.36ZM1310.25 129.004H1308.99V132H1307.25V129.004H1305.99L1304.17 132H1302.1L1304.55 128.136L1302.28 124.524H1304.15L1305.97 127.548H1307.25V124.524H1308.99V127.548H1310.26L1312.1 124.524H1313.96L1311.69 128.136L1314.16 132H1312.07L1310.25 129.004ZM1315.46 124.524H1317.21V127.562H1320.97V124.524H1322.72V132H1320.97V129.046H1317.21V132H1315.46V124.524ZM1325.07 124.524H1326.82V129.452L1330.95 124.524H1332.54V132H1330.79V127.072L1326.68 132H1325.07V124.524ZM1338.01 129.004H1336.65V132H1334.9V124.524H1336.65V127.548H1338.05L1340.26 124.524H1342.14L1339.42 128.122L1342.32 132H1340.26L1338.01 129.004ZM1343.55 124.524H1345.3V129.452L1349.43 124.524H1351.03V132H1349.28V127.072L1345.16 132H1343.55V124.524Z" fill="#A0A0A0"/>
<path d="M1058.06 126.448C1058.87 126.664 1059.48 127.036 1059.9 127.564C1060.32 128.08 1060.53 128.728 1060.53 129.508C1060.53 130.612 1060.12 131.47 1059.3 132.082C1058.49 132.694 1057.31 133 1055.76 133H1049.78V120.4H1055.42C1056.83 120.4 1057.94 120.682 1058.73 121.246C1059.52 121.81 1059.92 122.608 1059.92 123.64C1059.92 124.3 1059.75 124.87 1059.43 125.35C1059.12 125.83 1058.66 126.196 1058.06 126.448ZM1052.09 125.782H1055.22C1055.97 125.782 1056.55 125.632 1056.95 125.332C1057.34 125.032 1057.54 124.588 1057.54 124C1057.54 123.412 1057.34 122.968 1056.95 122.668C1056.55 122.356 1055.97 122.2 1055.22 122.2H1052.09V125.782ZM1055.69 131.2C1057.34 131.2 1058.17 130.576 1058.17 129.328C1058.17 128.104 1057.34 127.492 1055.69 127.492H1052.09V131.2H1055.69ZM1067.23 133.126C1066.25 133.126 1065.38 132.916 1064.6 132.496C1063.82 132.076 1063.21 131.494 1062.76 130.75C1062.33 129.994 1062.11 129.142 1062.11 128.194C1062.11 127.246 1062.33 126.4 1062.76 125.656C1063.21 124.912 1063.82 124.33 1064.6 123.91C1065.38 123.49 1066.25 123.28 1067.23 123.28C1068.21 123.28 1069.09 123.49 1069.87 123.91C1070.65 124.33 1071.26 124.912 1071.69 125.656C1072.13 126.4 1072.36 127.246 1072.36 128.194C1072.36 129.142 1072.13 129.994 1071.69 130.75C1071.26 131.494 1070.65 132.076 1069.87 132.496C1069.09 132.916 1068.21 133.126 1067.23 133.126ZM1067.23 131.2C1068.05 131.2 1068.74 130.924 1069.28 130.372C1069.82 129.82 1070.09 129.094 1070.09 128.194C1070.09 127.294 1069.82 126.568 1069.28 126.016C1068.74 125.464 1068.05 125.188 1067.23 125.188C1066.4 125.188 1065.71 125.464 1065.17 126.016C1064.65 126.568 1064.38 127.294 1064.38 128.194C1064.38 129.094 1064.65 129.82 1065.17 130.372C1065.71 130.924 1066.4 131.2 1067.23 131.2ZM1079.91 123.28C1080.84 123.28 1081.68 123.484 1082.41 123.892C1083.15 124.3 1083.73 124.876 1084.15 125.62C1084.57 126.364 1084.78 127.222 1084.78 128.194C1084.78 129.166 1084.57 130.03 1084.15 130.786C1083.73 131.53 1083.15 132.106 1082.41 132.514C1081.68 132.922 1080.84 133.126 1079.91 133.126C1078.61 133.126 1077.58 132.694 1076.83 131.83V136.492H1074.58V123.388H1076.72V124.648C1077.09 124.192 1077.55 123.85 1078.09 123.622C1078.64 123.394 1079.25 123.28 1079.91 123.28ZM1079.65 131.2C1080.48 131.2 1081.16 130.924 1081.69 130.372C1082.23 129.82 1082.5 129.094 1082.5 128.194C1082.5 127.294 1082.23 126.568 1081.69 126.016C1081.16 125.464 1080.48 125.188 1079.65 125.188C1079.11 125.188 1078.63 125.314 1078.2 125.566C1077.76 125.806 1077.42 126.154 1077.17 126.61C1076.92 127.066 1076.79 127.594 1076.79 128.194C1076.79 128.794 1076.92 129.322 1077.17 129.778C1077.42 130.234 1077.76 130.588 1078.2 130.84C1078.63 131.08 1079.11 131.2 1079.65 131.2ZM1091.31 133.126C1090.34 133.126 1089.46 132.916 1088.68 132.496C1087.9 132.076 1087.29 131.494 1086.84 130.75C1086.41 129.994 1086.2 129.142 1086.2 128.194C1086.2 127.246 1086.41 126.4 1086.84 125.656C1087.29 124.912 1087.9 124.33 1088.68 123.91C1089.46 123.49 1090.34 123.28 1091.31 123.28C1092.29 123.28 1093.17 123.49 1093.95 123.91C1094.73 124.33 1095.34 124.912 1095.77 125.656C1096.22 126.4 1096.44 127.246 1096.44 128.194C1096.44 129.142 1096.22 129.994 1095.77 130.75C1095.34 131.494 1094.73 132.076 1093.95 132.496C1093.17 132.916 1092.29 133.126 1091.31 133.126ZM1091.31 131.2C1092.14 131.2 1092.82 130.924 1093.36 130.372C1093.9 129.82 1094.17 129.094 1094.17 128.194C1094.17 127.294 1093.9 126.568 1093.36 126.016C1092.82 125.464 1092.14 125.188 1091.31 125.188C1090.48 125.188 1089.8 125.464 1089.26 126.016C1088.73 126.568 1088.46 127.294 1088.46 128.194C1088.46 129.094 1088.73 129.82 1089.26 130.372C1089.8 130.924 1090.48 131.2 1091.31 131.2ZM1103.86 123.856C1104.77 123.856 1105.58 124.054 1106.27 124.45C1106.97 124.834 1107.51 125.374 1107.89 126.07C1108.29 126.766 1108.49 127.564 1108.49 128.464C1108.49 129.388 1108.27 130.21 1107.84 130.93C1107.41 131.638 1106.8 132.19 1106.02 132.586C1105.24 132.982 1104.35 133.18 1103.36 133.18C1101.69 133.18 1100.4 132.628 1099.49 131.524C1098.58 130.42 1098.12 128.83 1098.12 126.754C1098.12 124.822 1098.53 123.292 1099.36 122.164C1100.19 121.036 1101.46 120.292 1103.16 119.932L1107.62 118.978L1107.95 120.994L1103.9 121.822C1102.73 122.062 1101.86 122.47 1101.29 123.046C1100.71 123.622 1100.38 124.432 1100.28 125.476C1100.71 124.96 1101.23 124.564 1101.85 124.288C1102.46 124 1103.13 123.856 1103.86 123.856ZM1103.41 131.362C1104.24 131.362 1104.91 131.098 1105.41 130.57C1105.93 130.03 1106.18 129.346 1106.18 128.518C1106.18 127.69 1105.93 127.024 1105.41 126.52C1104.91 126.016 1104.24 125.764 1103.41 125.764C1102.57 125.764 1101.89 126.016 1101.38 126.52C1100.86 127.024 1100.6 127.69 1100.6 128.518C1100.6 129.358 1100.86 130.042 1101.38 130.57C1101.91 131.098 1102.58 131.362 1103.41 131.362ZM1115.49 126.556C1116.71 126.556 1117.65 126.832 1118.3 127.384C1118.96 127.936 1119.29 128.716 1119.29 129.724C1119.29 130.78 1118.93 131.596 1118.21 132.172C1117.49 132.748 1116.47 133.03 1115.17 133.018L1110.67 133V123.388H1112.92V126.538L1115.49 126.556ZM1114.97 131.362C1115.63 131.374 1116.13 131.236 1116.48 130.948C1116.83 130.66 1117 130.24 1117 129.688C1117 129.148 1116.83 128.752 1116.5 128.5C1116.16 128.248 1115.65 128.116 1114.97 128.104L1112.92 128.086V131.344L1114.97 131.362ZM1130.27 128.248C1130.27 128.404 1130.25 128.626 1130.23 128.914H1122.69C1122.82 129.622 1123.16 130.186 1123.71 130.606C1124.28 131.014 1124.97 131.218 1125.8 131.218C1126.86 131.218 1127.73 130.87 1128.41 130.174L1129.62 131.56C1129.19 132.076 1128.64 132.466 1127.98 132.73C1127.32 132.994 1126.58 133.126 1125.75 133.126C1124.69 133.126 1123.76 132.916 1122.96 132.496C1122.15 132.076 1121.53 131.494 1121.09 130.75C1120.65 129.994 1120.44 129.142 1120.44 128.194C1120.44 127.258 1120.65 126.418 1121.07 125.674C1121.5 124.918 1122.09 124.33 1122.85 123.91C1123.61 123.49 1124.46 123.28 1125.41 123.28C1126.34 123.28 1127.18 123.49 1127.91 123.91C1128.65 124.318 1129.23 124.9 1129.64 125.656C1130.06 126.4 1130.27 127.264 1130.27 128.248ZM1125.41 125.08C1124.69 125.08 1124.07 125.296 1123.57 125.728C1123.08 126.148 1122.78 126.712 1122.67 127.42H1128.12C1128.03 126.724 1127.73 126.16 1127.24 125.728C1126.75 125.296 1126.14 125.08 1125.41 125.08ZM1123.61 121.876C1123.29 121.876 1123.04 121.774 1122.83 121.57C1122.63 121.366 1122.53 121.108 1122.53 120.796C1122.53 120.472 1122.63 120.208 1122.83 120.004C1123.04 119.8 1123.29 119.698 1123.61 119.698C1123.92 119.698 1124.18 119.8 1124.38 120.004C1124.58 120.208 1124.69 120.472 1124.69 120.796C1124.69 121.108 1124.58 121.366 1124.38 121.57C1124.18 121.774 1123.92 121.876 1123.61 121.876ZM1127.1 121.876C1126.79 121.876 1126.53 121.774 1126.32 121.57C1126.12 121.366 1126.02 121.108 1126.02 120.796C1126.02 120.472 1126.12 120.208 1126.32 120.004C1126.53 119.8 1126.79 119.698 1127.1 119.698C1127.41 119.698 1127.67 119.8 1127.87 120.004C1128.08 120.208 1128.18 120.472 1128.18 120.796C1128.18 121.108 1128.08 121.366 1127.87 121.57C1127.67 121.774 1127.41 121.876 1127.1 121.876ZM1139.69 127.996C1140.88 128.356 1141.47 129.124 1141.47 130.3C1141.47 131.164 1141.15 131.83 1140.5 132.298C1139.85 132.766 1138.89 133 1137.62 133H1132.73V123.388H1137.42C1138.6 123.388 1139.52 123.604 1140.18 124.036C1140.84 124.468 1141.17 125.08 1141.17 125.872C1141.17 126.364 1141.04 126.79 1140.77 127.15C1140.52 127.51 1140.16 127.792 1139.69 127.996ZM1134.87 127.402H1137.23C1138.39 127.402 1138.97 127 1138.97 126.196C1138.97 125.416 1138.39 125.026 1137.23 125.026H1134.87V127.402ZM1137.44 131.362C1138.68 131.362 1139.3 130.96 1139.3 130.156C1139.3 129.736 1139.15 129.424 1138.86 129.22C1138.58 129.004 1138.13 128.896 1137.51 128.896H1134.87V131.362H1137.44ZM1148.55 126.556C1149.78 126.556 1150.71 126.832 1151.36 127.384C1152.01 127.936 1152.33 128.716 1152.33 129.724C1152.33 130.78 1151.97 131.596 1151.25 132.172C1150.54 132.748 1149.54 133.03 1148.23 133.018L1143.87 133V123.388H1146.12V126.538L1148.55 126.556ZM1153.57 123.388H1155.82V133H1153.57V123.388ZM1148.03 131.362C1148.69 131.374 1149.19 131.236 1149.54 130.948C1149.89 130.66 1150.06 130.24 1150.06 129.688C1150.06 129.148 1149.9 128.752 1149.56 128.5C1149.22 128.248 1148.71 128.116 1148.03 128.104L1146.12 128.086V131.344L1148.03 131.362ZM1171.2 125.296H1166.07V133H1163.82V123.388H1171.2V125.296ZM1176.7 133.126C1175.73 133.126 1174.85 132.916 1174.07 132.496C1173.29 132.076 1172.68 131.494 1172.24 130.75C1171.81 129.994 1171.59 129.142 1171.59 128.194C1171.59 127.246 1171.81 126.4 1172.24 125.656C1172.68 124.912 1173.29 124.33 1174.07 123.91C1174.85 123.49 1175.73 123.28 1176.7 123.28C1177.69 123.28 1178.57 123.49 1179.35 123.91C1180.13 124.33 1180.73 124.912 1181.17 125.656C1181.61 126.4 1181.83 127.246 1181.83 128.194C1181.83 129.142 1181.61 129.994 1181.17 130.75C1180.73 131.494 1180.13 132.076 1179.35 132.496C1178.57 132.916 1177.69 133.126 1176.7 133.126ZM1176.7 131.2C1177.53 131.2 1178.21 130.924 1178.75 130.372C1179.29 129.82 1179.56 129.094 1179.56 128.194C1179.56 127.294 1179.29 126.568 1178.75 126.016C1178.21 125.464 1177.53 125.188 1176.7 125.188C1175.87 125.188 1175.19 125.464 1174.65 126.016C1174.12 126.568 1173.86 127.294 1173.86 128.194C1173.86 129.094 1174.12 129.82 1174.65 130.372C1175.19 130.924 1175.87 131.2 1176.7 131.2ZM1189.38 123.28C1190.32 123.28 1191.15 123.484 1191.88 123.892C1192.63 124.3 1193.21 124.876 1193.63 125.62C1194.05 126.364 1194.26 127.222 1194.26 128.194C1194.26 129.166 1194.05 130.03 1193.63 130.786C1193.21 131.53 1192.63 132.106 1191.88 132.514C1191.15 132.922 1190.32 133.126 1189.38 133.126C1188.09 133.126 1187.06 132.694 1186.3 131.83V136.492H1184.05V123.388H1186.2V124.648C1186.57 124.192 1187.02 123.85 1187.56 123.622C1188.12 123.394 1188.72 123.28 1189.38 123.28ZM1189.13 131.2C1189.96 131.2 1190.64 130.924 1191.16 130.372C1191.7 129.82 1191.97 129.094 1191.97 128.194C1191.97 127.294 1191.7 126.568 1191.16 126.016C1190.64 125.464 1189.96 125.188 1189.13 125.188C1188.59 125.188 1188.1 125.314 1187.67 125.566C1187.24 125.806 1186.9 126.154 1186.65 126.61C1186.39 127.066 1186.27 127.594 1186.27 128.194C1186.27 128.794 1186.39 129.322 1186.65 129.778C1186.9 130.234 1187.24 130.588 1187.67 130.84C1188.1 131.08 1188.59 131.2 1189.13 131.2ZM1201.18 126.556C1202.4 126.556 1203.34 126.832 1203.99 127.384C1204.64 127.936 1204.96 128.716 1204.96 129.724C1204.96 130.78 1204.6 131.596 1203.88 132.172C1203.17 132.748 1202.16 133.03 1200.86 133.018L1196.5 133V123.388H1198.75V126.538L1201.18 126.556ZM1206.2 123.388H1208.45V133H1206.2V123.388ZM1200.66 131.362C1201.32 131.374 1201.82 131.236 1202.17 130.948C1202.52 130.66 1202.69 130.24 1202.69 129.688C1202.69 129.148 1202.52 128.752 1202.19 128.5C1201.85 128.248 1201.34 128.116 1200.66 128.104L1198.75 128.086V131.344L1200.66 131.362Z" fill="#A0A0A0"/>
<path d="M272.908 122.38H268.732V133H266.41V122.38H262.252V120.4H272.908V122.38ZM279.774 123.28C280.71 123.28 281.544 123.484 282.276 123.892C283.02 124.3 283.602 124.876 284.022 125.62C284.442 126.364 284.652 127.222 284.652 128.194C284.652 129.166 284.442 130.03 284.022 130.786C283.602 131.53 283.02 132.106 282.276 132.514C281.544 132.922 280.71 133.126 279.774 133.126C278.478 133.126 277.452 132.694 276.696 131.83V136.492H274.446V123.388H276.588V124.648C276.96 124.192 277.416 123.85 277.956 123.622C278.508 123.394 279.114 123.28 279.774 123.28ZM279.522 131.2C280.35 131.2 281.028 130.924 281.556 130.372C282.096 129.82 282.366 129.094 282.366 128.194C282.366 127.294 282.096 126.568 281.556 126.016C281.028 125.464 280.35 125.188 279.522 125.188C278.982 125.188 278.496 125.314 278.064 125.566C277.632 125.806 277.29 126.154 277.038 126.61C276.786 127.066 276.66 127.594 276.66 128.194C276.66 128.794 276.786 129.322 277.038 129.778C277.29 130.234 277.632 130.588 278.064 130.84C278.496 131.08 278.982 131.2 279.522 131.2ZM291.175 133.126C290.203 133.126 289.327 132.916 288.547 132.496C287.767 132.076 287.155 131.494 286.711 130.75C286.279 129.994 286.063 129.142 286.063 128.194C286.063 127.246 286.279 126.4 286.711 125.656C287.155 124.912 287.767 124.33 288.547 123.91C289.327 123.49 290.203 123.28 291.175 123.28C292.159 123.28 293.041 123.49 293.821 123.91C294.601 124.33 295.207 124.912 295.639 125.656C296.083 126.4 296.305 127.246 296.305 128.194C296.305 129.142 296.083 129.994 295.639 130.75C295.207 131.494 294.601 132.076 293.821 132.496C293.041 132.916 292.159 133.126 291.175 133.126ZM291.175 131.2C292.003 131.2 292.687 130.924 293.227 130.372C293.767 129.82 294.037 129.094 294.037 128.194C294.037 127.294 293.767 126.568 293.227 126.016C292.687 125.464 292.003 125.188 291.175 125.188C290.347 125.188 289.663 125.464 289.123 126.016C288.595 126.568 288.331 127.294 288.331 128.194C288.331 129.094 288.595 129.82 289.123 130.372C289.663 130.924 290.347 131.2 291.175 131.2ZM307.744 123.388V133H305.512V125.296H300.778V133H298.528V123.388H307.744ZM314.362 123.28C315.778 123.28 316.858 123.622 317.602 124.306C318.358 124.978 318.736 125.998 318.736 127.366V133H316.612V131.83C316.336 132.25 315.94 132.574 315.424 132.802C314.92 133.018 314.308 133.126 313.588 133.126C312.868 133.126 312.238 133.006 311.698 132.766C311.158 132.514 310.738 132.172 310.438 131.74C310.15 131.296 310.006 130.798 310.006 130.246C310.006 129.382 310.324 128.692 310.96 128.176C311.608 127.648 312.622 127.384 314.002 127.384H316.486V127.24C316.486 126.568 316.282 126.052 315.874 125.692C315.478 125.332 314.884 125.152 314.092 125.152C313.552 125.152 313.018 125.236 312.49 125.404C311.974 125.572 311.536 125.806 311.176 126.106L310.294 124.468C310.798 124.084 311.404 123.79 312.112 123.586C312.82 123.382 313.57 123.28 314.362 123.28ZM314.056 131.488C314.62 131.488 315.118 131.362 315.55 131.11C315.994 130.846 316.306 130.474 316.486 129.994V128.878H314.164C312.868 128.878 312.22 129.304 312.22 130.156C312.22 130.564 312.382 130.888 312.706 131.128C313.03 131.368 313.48 131.488 314.056 131.488ZM326.848 123.28C327.784 123.28 328.618 123.484 329.35 123.892C330.094 124.3 330.676 124.876 331.096 125.62C331.516 126.364 331.726 127.222 331.726 128.194C331.726 129.166 331.516 130.03 331.096 130.786C330.676 131.53 330.094 132.106 329.35 132.514C328.618 132.922 327.784 133.126 326.848 133.126C325.552 133.126 324.526 132.694 323.77 131.83V136.492H321.52V123.388H323.662V124.648C324.034 124.192 324.49 123.85 325.03 123.622C325.582 123.394 326.188 123.28 326.848 123.28ZM326.596 131.2C327.424 131.2 328.102 130.924 328.63 130.372C329.17 129.82 329.44 129.094 329.44 128.194C329.44 127.294 329.17 126.568 328.63 126.016C328.102 125.464 327.424 125.188 326.596 125.188C326.056 125.188 325.57 125.314 325.138 125.566C324.706 125.806 324.364 126.154 324.112 126.61C323.86 127.066 323.734 127.594 323.734 128.194C323.734 128.794 323.86 129.322 324.112 129.778C324.364 130.234 324.706 130.588 325.138 130.84C325.57 131.08 326.056 131.2 326.596 131.2ZM342.965 128.248C342.965 128.404 342.953 128.626 342.929 128.914H335.387C335.519 129.622 335.861 130.186 336.413 130.606C336.977 131.014 337.673 131.218 338.501 131.218C339.557 131.218 340.427 130.87 341.111 130.174L342.317 131.56C341.885 132.076 341.339 132.466 340.679 132.73C340.019 132.994 339.275 133.126 338.447 133.126C337.391 133.126 336.461 132.916 335.657 132.496C334.853 132.076 334.229 131.494 333.785 130.75C333.353 129.994 333.137 129.142 333.137 128.194C333.137 127.258 333.347 126.418 333.767 125.674C334.199 124.918 334.793 124.33 335.549 123.91C336.305 123.49 337.157 123.28 338.105 123.28C339.041 123.28 339.875 123.49 340.607 123.91C341.351 124.318 341.927 124.9 342.335 125.656C342.755 126.4 342.965 127.264 342.965 128.248ZM338.105 125.08C337.385 125.08 336.773 125.296 336.269 125.728C335.777 126.148 335.477 126.712 335.369 127.42H340.823C340.727 126.724 340.433 126.16 339.941 125.728C339.449 125.296 338.837 125.08 338.105 125.08ZM336.305 121.876C335.993 121.876 335.735 121.774 335.531 121.57C335.327 121.366 335.225 121.108 335.225 120.796C335.225 120.472 335.327 120.208 335.531 120.004C335.735 119.8 335.993 119.698 336.305 119.698C336.617 119.698 336.875 119.8 337.079 120.004C337.283 120.208 337.385 120.472 337.385 120.796C337.385 121.108 337.283 121.366 337.079 121.57C336.875 121.774 336.617 121.876 336.305 121.876ZM339.797 121.876C339.485 121.876 339.227 121.774 339.023 121.57C338.819 121.366 338.717 121.108 338.717 120.796C338.717 120.472 338.819 120.208 339.023 120.004C339.227 119.8 339.485 119.698 339.797 119.698C340.109 119.698 340.367 119.8 340.571 120.004C340.775 120.208 340.877 120.472 340.877 120.796C340.877 121.108 340.775 121.366 340.571 121.57C340.367 121.774 340.109 121.876 339.797 121.876ZM352.392 127.996C353.58 128.356 354.174 129.124 354.174 130.3C354.174 131.164 353.85 131.83 353.202 132.298C352.554 132.766 351.594 133 350.322 133H345.426V123.388H350.124C351.3 123.388 352.218 123.604 352.878 124.036C353.538 124.468 353.868 125.08 353.868 125.872C353.868 126.364 353.736 126.79 353.472 127.15C353.22 127.51 352.86 127.792 352.392 127.996ZM347.568 127.402H349.926C351.09 127.402 351.672 127 351.672 126.196C351.672 125.416 351.09 125.026 349.926 125.026H347.568V127.402ZM350.142 131.362C351.378 131.362 351.996 130.96 351.996 130.156C351.996 129.736 351.852 129.424 351.564 129.22C351.276 129.004 350.826 128.896 350.214 128.896H347.568V131.362H350.142ZM360.855 133.126C359.883 133.126 359.007 132.916 358.227 132.496C357.447 132.076 356.835 131.494 356.391 130.75C355.959 129.994 355.743 129.142 355.743 128.194C355.743 127.246 355.959 126.4 356.391 125.656C356.835 124.912 357.447 124.33 358.227 123.91C359.007 123.49 359.883 123.28 360.855 123.28C361.839 123.28 362.721 123.49 363.501 123.91C364.281 124.33 364.887 124.912 365.319 125.656C365.763 126.4 365.985 127.246 365.985 128.194C365.985 129.142 365.763 129.994 365.319 130.75C364.887 131.494 364.281 132.076 363.501 132.496C362.721 132.916 361.839 133.126 360.855 133.126ZM360.855 131.2C361.683 131.2 362.367 130.924 362.907 130.372C363.447 129.82 363.717 129.094 363.717 128.194C363.717 127.294 363.447 126.568 362.907 126.016C362.367 125.464 361.683 125.188 360.855 125.188C360.027 125.188 359.343 125.464 358.803 126.016C358.275 126.568 358.011 127.294 358.011 128.194C358.011 129.094 358.275 129.82 358.803 130.372C359.343 130.924 360.027 131.2 360.855 131.2Z" fill="#A0A0A0"/>
<path d="M78.948 32.4C80.04 32.4 80.988 32.58 81.792 32.94C82.608 33.3 83.232 33.816 83.664 34.488C84.096 35.16 84.312 35.958 84.312 36.882C84.312 37.794 84.096 38.592 83.664 39.276C83.232 39.948 82.608 40.464 81.792 40.824C80.988 41.184 80.04 41.364 78.948 41.364H76.104V45H73.764V32.4H78.948ZM78.84 39.384C79.86 39.384 80.634 39.168 81.162 38.736C81.69 38.304 81.954 37.686 81.954 36.882C81.954 36.078 81.69 35.46 81.162 35.028C80.634 34.596 79.86 34.38 78.84 34.38H76.104V39.384H78.84ZM95.4336 35.388L90.9336 45.774C90.5136 46.818 90.0036 47.55 89.4036 47.97C88.8036 48.402 88.0776 48.618 87.2256 48.618C86.7456 48.618 86.2716 48.54 85.8036 48.384C85.3356 48.228 84.9516 48.012 84.6516 47.736L85.5516 46.08C85.7676 46.284 86.0196 46.446 86.3076 46.566C86.6076 46.686 86.9076 46.746 87.2076 46.746C87.6036 46.746 87.9276 46.644 88.1796 46.44C88.4436 46.236 88.6836 45.894 88.8996 45.414L89.0616 45.036L84.8676 35.388H87.2076L90.2316 42.498L93.2736 35.388H95.4336ZM106.446 45V38.628L103.206 43.992H102.234L99.0484 38.61V45H96.9964V35.388H99.3544L102.774 41.4L106.356 35.388H108.462L108.48 45H106.446ZM119.616 35.388V45H117.6V42.102H115.062L113.1 45H110.688L112.956 41.796C112.26 41.556 111.726 41.19 111.354 40.698C110.994 40.194 110.814 39.576 110.814 38.844C110.814 37.74 111.204 36.888 111.984 36.288C112.764 35.688 113.838 35.388 115.206 35.388H119.616ZM115.278 37.278C113.826 37.278 113.1 37.824 113.1 38.916C113.1 39.996 113.802 40.536 115.206 40.536H117.6V37.278H115.278ZM122.643 35.388H124.893V39.294H129.735V35.388H131.985V45H129.735V41.202H124.893V45H122.643V35.388ZM145.548 43.092V47.214H143.442V45H135V35.388H137.25V43.092H141.84V35.388H144.09V43.092H145.548ZM156.551 40.248C156.551 40.404 156.539 40.626 156.515 40.914H148.973C149.105 41.622 149.447 42.186 149.999 42.606C150.563 43.014 151.259 43.218 152.087 43.218C153.143 43.218 154.013 42.87 154.697 42.174L155.903 43.56C155.471 44.076 154.925 44.466 154.265 44.73C153.605 44.994 152.861 45.126 152.033 45.126C150.977 45.126 150.047 44.916 149.243 44.496C148.439 44.076 147.815 43.494 147.371 42.75C146.939 41.994 146.723 41.142 146.723 40.194C146.723 39.258 146.933 38.418 147.353 37.674C147.785 36.918 148.379 36.33 149.135 35.91C149.891 35.49 150.743 35.28 151.691 35.28C152.627 35.28 153.461 35.49 154.193 35.91C154.937 36.318 155.513 36.9 155.921 37.656C156.341 38.4 156.551 39.264 156.551 40.248ZM151.691 37.08C150.971 37.08 150.359 37.296 149.855 37.728C149.363 38.148 149.063 38.712 148.955 39.42H154.409C154.313 38.724 154.019 38.16 153.527 37.728C153.035 37.296 152.423 37.08 151.691 37.08ZM165.978 39.996C167.166 40.356 167.76 41.124 167.76 42.3C167.76 43.164 167.436 43.83 166.788 44.298C166.14 44.766 165.18 45 163.908 45H159.012V35.388H163.71C164.886 35.388 165.804 35.604 166.464 36.036C167.124 36.468 167.454 37.08 167.454 37.872C167.454 38.364 167.322 38.79 167.058 39.15C166.806 39.51 166.446 39.792 165.978 39.996ZM161.154 39.402H163.512C164.676 39.402 165.258 39 165.258 38.196C165.258 37.416 164.676 37.026 163.512 37.026H161.154V39.402ZM163.728 43.362C164.964 43.362 165.582 42.96 165.582 42.156C165.582 41.736 165.438 41.424 165.15 41.22C164.862 41.004 164.412 40.896 163.8 40.896H161.154V43.362H163.728ZM174.441 45.126C173.469 45.126 172.593 44.916 171.813 44.496C171.033 44.076 170.421 43.494 169.977 42.75C169.545 41.994 169.329 41.142 169.329 40.194C169.329 39.246 169.545 38.4 169.977 37.656C170.421 36.912 171.033 36.33 171.813 35.91C172.593 35.49 173.469 35.28 174.441 35.28C175.425 35.28 176.307 35.49 177.087 35.91C177.867 36.33 178.473 36.912 178.905 37.656C179.349 38.4 179.571 39.246 179.571 40.194C179.571 41.142 179.349 41.994 178.905 42.75C178.473 43.494 177.867 44.076 177.087 44.496C176.307 44.916 175.425 45.126 174.441 45.126ZM174.441 43.2C175.269 43.2 175.953 42.924 176.493 42.372C177.033 41.82 177.303 41.094 177.303 40.194C177.303 39.294 177.033 38.568 176.493 38.016C175.953 37.464 175.269 37.188 174.441 37.188C173.613 37.188 172.929 37.464 172.389 38.016C171.861 38.568 171.597 39.294 171.597 40.194C171.597 41.094 171.861 41.82 172.389 42.372C172.929 42.924 173.613 43.2 174.441 43.2Z" fill="#A0A0A0"/>
</g>
<defs>
<clipPath id="clip0">
<rect width="1366" height="8553" fill="white" transform="translate(0 -3916)"/>
</clipPath>
</defs>
</svg>
