<svg width="80" height="80" viewBox="0 0 80 80" fill="none" xmlns="http://www.w3.org/2000/svg">
<path d="M40 0L44.2165 3.92558L49.2246 1.07821L52.4222 5.87037L57.952 4.2547L59.9582 9.65508L65.7115 9.35822L66.4182 15.0757L72.0849 16.1137L71.454 21.84L76.7286 24.1568L74.7942 29.5833L79.3923 33.0541L76.2586 37.8882L79.9323 42.3258L75.7682 46.3069L78.3196 51.4721L73.3496 54.3856L74.641 60L69.1331 61.6888L69.0949 67.4497L63.346 67.8227L61.9804 73.4195L56.3004 72.4567L53.6808 77.5877L48.376 75.341L44.6437 79.7295L40 76.32L35.3563 79.7295L31.624 75.341L26.3192 77.5877L23.6996 72.4567L18.0196 73.4195L16.654 67.8227L10.9051 67.4497L10.8669 61.6888L5.35898 60L6.65039 54.3856L1.68042 51.4721L4.23178 46.3069L0.0676727 42.3258L3.74145 37.8882L0.607689 33.0541L5.20582 29.5833L3.27135 24.1568L8.54596 21.84L7.91507 16.1137L13.5818 15.0757L14.2885 9.35822L20.0418 9.65508L22.048 4.2547L27.5778 5.87037L30.7754 1.07821L35.7835 3.92558L40 0Z" fill="url(#paint0_linear)"/>
<path d="M27.9033 23.9311L27.5909 31.5703C27.5747 32.2729 27.4436 32.8144 27.1976 33.1946C26.9591 33.572 26.6016 33.8543 26.125 34.0415C25.8346 34.1556 25.5327 34.2183 25.2191 34.2298C24.916 34.2457 24.6399 34.1995 24.391 34.091L24.533 33.1069C24.9524 33.2774 25.3631 33.2836 25.7652 33.1256C26.0258 33.0233 26.214 32.8677 26.3296 32.6589C26.4557 32.4547 26.5236 32.1573 26.5335 31.7666L26.561 31.2788L21.6263 26.3971L22.7432 25.9583L26.6699 29.8822L26.8534 24.3436L27.9033 23.9311ZM29.0011 23.4999L30.0733 23.0786L31.0605 25.5917L34.4336 24.2665L33.4463 21.7535L34.5185 21.3323L36.8441 27.2518L35.7719 27.6731L34.7978 25.1936L31.4247 26.5187L32.3988 28.9982L31.3266 29.4194L29.0011 23.4999ZM36.6034 20.5132L37.6756 20.092L39.3693 24.4032L41.3055 18.6659L42.2773 18.2842L44.6028 24.2038L43.5306 24.625L41.8369 20.3138L39.9118 26.0467L38.929 26.4328L36.6034 20.5132ZM44.8954 20.0147L47.8998 18.8344L48.264 19.7614L45.2595 20.9417L44.8954 20.0147ZM19.2108 47.4073L17.9822 47.89L18.965 50.3918L17.8928 50.813L15.5673 44.8935L16.6395 44.4722L17.6224 46.9741L18.8733 46.4827L19.8115 43.2261L20.9619 42.7741L19.8358 46.5042L23.4438 48.6323L22.1817 49.1281L19.2108 47.4073ZM24.2224 41.4287C25.0415 41.107 25.7459 41.0623 26.3358 41.2947C26.933 41.5242 27.3882 42.0373 27.7012 42.834L29.1053 46.4081L28.0889 46.8074L27.7818 46.0256C27.7113 46.3713 27.5378 46.6844 27.2612 46.965C26.9892 47.2352 26.626 47.4595 26.1718 47.6379C25.5091 47.8983 24.9138 47.9473 24.386 47.7851C23.8656 47.62 23.503 47.2768 23.2982 46.7556C23.0934 46.2344 23.1195 45.7428 23.3764 45.2809C23.6303 44.8115 24.1706 44.4145 24.9971 44.0898L26.6948 43.4228L26.6114 43.2106C26.43 42.7489 26.1571 42.4479 25.7925 42.3075C25.4279 42.1671 24.985 42.1993 24.4638 42.404C24.1138 42.5415 23.7947 42.7357 23.5064 42.9864C23.2152 43.2298 22.9922 43.4936 22.8375 43.7778L22.0748 43.1492C22.2835 42.7835 22.5753 42.454 22.95 42.1607C23.3217 41.86 23.7459 41.616 24.2224 41.4287ZM26.0258 46.7412C26.4354 46.5803 26.7539 46.352 26.9816 46.0563C27.2063 45.7531 27.3198 45.4077 27.3222 45.02L26.9975 44.1935L25.3445 44.8429C24.4361 45.1998 24.1018 45.6835 24.3417 46.2941C24.4587 46.5919 24.6663 46.7811 24.9644 46.8617C25.2625 46.9423 25.6163 46.9021 26.0258 46.7412ZM33.7924 37.7336L36.1179 43.6531L35.0457 44.0744L33.0887 39.093L30.5422 40.0934L30.993 41.4377C31.2687 42.249 31.4598 42.9433 31.5662 43.5203C31.6696 44.0899 31.6651 44.5816 31.5526 44.9954C31.4401 45.4092 31.1717 45.6995 30.7472 45.8662C30.5536 45.9423 30.3208 45.9951 30.0488 46.0246L29.7604 45.0936C29.866 45.0779 29.9597 45.0539 30.0416 45.0218C30.3394 44.9047 30.5116 44.6867 30.5582 44.3676C30.6047 44.0485 30.5801 43.7014 30.4844 43.3265C30.3886 42.9515 30.2292 42.4254 30.0061 41.748L29.2466 39.5194L33.7924 37.7336ZM39.3918 37.8545C40.1468 37.5665 40.7874 37.5125 41.3137 37.6925C41.84 37.8725 42.2231 38.2678 42.4629 38.8784C42.7145 39.5188 42.6931 40.0988 42.3987 40.6184C42.1089 41.1277 41.5641 41.5351 40.7644 41.8406L38.1912 42.8386L35.8656 36.9191L36.9379 36.4978L37.7233 38.4971L39.3918 37.8545ZM40.3548 41.0604C40.8417 40.8777 41.1685 40.6375 41.3353 40.34C41.5094 40.0395 41.519 39.6919 41.364 39.2973C41.2119 38.9101 40.9779 38.6754 40.6619 38.5932C40.3534 38.5081 39.9483 38.5598 39.4465 38.7484L38.0304 39.2789L38.9431 41.6021L40.3548 41.0604ZM42.29 34.3952L43.3622 33.974L44.3495 36.487L47.7225 35.1619L46.7353 32.6488L47.8075 32.2276L50.133 38.1472L49.0608 38.5684L48.0867 36.0889L44.7137 37.414L45.6878 39.8935L44.6155 40.3148L42.29 34.3952ZM53.3515 32.3703C54.0991 32.0852 54.736 32.0327 55.2622 32.2127C55.7885 32.3927 56.1716 32.788 56.4115 33.3986C56.663 34.039 56.6416 34.619 56.3472 35.1386C56.0574 35.6478 55.5126 36.0552 54.713 36.3608L52.2179 37.3281L49.8923 31.4085L50.9646 30.9873L51.75 32.9866L53.3515 32.3703ZM55.7449 29.1093L56.8171 28.6881L59.1427 34.6077L58.0705 35.0289L55.7449 29.1093ZM54.3145 35.5762C54.8014 35.3935 55.1282 35.1534 55.295 34.8558C55.4691 34.5553 55.4787 34.2077 55.3237 33.8131C55.1716 33.4259 54.9375 33.1912 54.6216 33.109C54.3057 33.0269 53.9006 33.0786 53.4062 33.2642L52.0571 33.7684L52.9698 36.0916L54.3145 35.5762ZM58.9017 27.8691L59.9739 27.4479L61.6676 31.7591L63.6039 26.0218L64.5756 25.6401L66.9011 31.5597L65.8289 31.9809L64.1352 27.6697L62.2101 33.4026L61.2273 33.7887L58.9017 27.8691ZM61.3689 26.0103C60.8179 26.2267 60.3385 26.2646 59.9309 26.124C59.5203 25.9758 59.2132 25.6538 59.0098 25.1579L59.7358 24.8726C59.8515 25.1452 60.0323 25.332 60.2783 25.4331C60.5288 25.5238 60.8067 25.5091 61.112 25.3892C61.4173 25.2693 61.6308 25.0908 61.7526 24.8539C61.8715 24.6095 61.8805 24.3481 61.7797 24.0697L62.528 23.7757C62.7166 24.2775 62.7071 24.7238 62.4997 25.1148C62.2894 25.4982 61.9124 25.7967 61.3689 26.0103ZM32.3415 58.3648L31.113 58.8474L32.0958 61.3493L31.0236 61.7705L28.698 55.8509L29.7703 55.4297L30.7531 57.9316L32.0041 57.4401L32.9423 54.1836L34.0927 53.7316L32.9666 57.4617L36.5746 59.5898L35.3125 60.0856L32.3415 58.3648ZM40.3181 51.2859L40.0058 58.9251C39.9896 59.6277 39.8584 60.1691 39.6125 60.5494C39.3739 60.9268 39.0164 61.209 38.5398 61.3963C38.2494 61.5103 37.9475 61.5731 37.634 61.5845C37.3308 61.6005 37.0548 61.5542 36.8059 61.4457L36.9479 60.4617C37.3672 60.6321 37.778 60.6384 38.18 60.4804C38.4406 60.378 38.6288 60.2224 38.7445 60.0137C38.8705 59.8095 38.9385 59.512 38.9483 59.1214L38.9758 58.6335L34.0411 53.7519L35.158 53.3131L39.0847 57.237L39.2682 51.6984L40.3181 51.2859ZM44.5324 49.5658C45.1058 49.3405 45.6693 49.2653 46.2229 49.34C46.7766 49.4147 47.2692 49.6295 47.7008 49.9842C48.1399 50.336 48.4764 50.8098 48.7104 51.4055C48.9445 52.0012 49.0219 52.581 48.9426 53.1451C48.8679 53.6987 48.6531 54.1914 48.2984 54.623C47.9436 55.0546 47.4796 55.383 46.9063 55.6082C46.4818 55.775 46.0587 55.8466 45.637 55.8232C45.2227 55.7969 44.8312 55.6756 44.4626 55.4594L45.6649 58.5198L44.5927 58.941L41.4159 50.8546L42.4434 50.4509L42.812 51.3891C42.9216 50.9679 43.1266 50.6037 43.4271 50.2966C43.7247 49.982 44.0931 49.7384 44.5324 49.5658ZM46.4483 54.7051C46.8281 54.5559 47.1332 54.3372 47.3638 54.049C47.5989 53.7503 47.7406 53.411 47.789 53.031C47.8419 52.6406 47.7879 52.2406 47.6271 51.8311C47.4662 51.4216 47.2349 51.0955 46.9334 50.853C46.6363 50.6001 46.3015 50.448 45.929 50.3967C45.5638 50.3424 45.1914 50.3899 44.8117 50.5391C44.4394 50.6854 44.1357 50.9078 43.9006 51.2064C43.67 51.4947 43.5268 51.8303 43.471 52.2132C43.4226 52.5933 43.4788 52.988 43.6397 53.3976C43.8006 53.8071 44.0296 54.1383 44.3266 54.3912C44.6207 54.6367 44.9555 54.7888 45.331 54.8475C45.7036 54.8989 46.076 54.8514 46.4483 54.7051ZM54.0374 52.8067C53.4343 53.0436 52.8433 53.1254 52.2643 53.052C51.6928 52.9757 51.1839 52.7631 50.7374 52.4142C50.2879 52.0578 49.9492 51.5893 49.721 51.0085C49.4928 50.4277 49.4235 49.8575 49.5132 49.298C49.5998 48.7311 49.828 48.2289 50.1977 47.7914C50.5718 47.3436 51.0605 47.0012 51.6636 46.7643C52.1997 46.5536 52.7187 46.4744 53.2205 46.5265C53.7297 46.5757 54.1802 46.7597 54.5719 47.0786L53.9628 47.9238C53.6655 47.714 53.3513 47.5925 53.0202 47.5592C52.6891 47.526 52.3561 47.5752 52.021 47.7068C51.6338 47.8589 51.3175 48.0821 51.072 48.3762C50.834 48.6674 50.6886 49.0082 50.6356 49.3985C50.5872 49.7786 50.6435 50.1733 50.8044 50.5829C50.9682 50.9998 51.1986 51.3348 51.4957 51.5877C51.7972 51.8302 52.1343 51.9771 52.5069 52.0284C52.8869 52.0768 53.2705 52.025 53.6577 51.8729C53.9927 51.7412 54.2702 51.5506 54.4902 51.3009C54.7101 51.0512 54.8575 50.7483 54.9325 50.3922L55.9497 50.5856C55.8798 51.0859 55.6765 51.531 55.3398 51.9211C55.0077 52.3009 54.5735 52.5961 54.0374 52.8067ZM58.9454 46.2887C59.6929 46.0036 60.3298 45.9511 60.8561 46.1311C61.3824 46.3112 61.7655 46.7065 62.0053 47.317C62.2569 47.9574 62.2355 48.5374 61.9411 49.057C61.6513 49.5663 61.1065 49.9737 60.3069 50.2792L57.8118 51.2465L55.4862 45.327L56.5584 44.9057L57.3439 46.905L58.9454 46.2887ZM61.3388 43.0277L62.411 42.6065L64.7366 48.5261L63.6643 48.9473L61.3388 43.0277ZM59.9084 49.4946C60.3953 49.3119 60.7221 49.0718 60.8888 48.7742C61.063 48.4737 61.0726 48.1261 60.9176 47.7315C60.7654 47.3443 60.5314 47.1096 60.2155 47.0274C59.8996 46.9453 59.4944 46.997 59.0001 47.1826L57.651 47.6868L58.5637 50.01L59.9084 49.4946Z" fill="white"/>
<defs>
<linearGradient id="paint0_linear" x1="72" y1="91.4286" x2="14.4762" y2="7.33204e-07" gradientUnits="userSpaceOnUse">
<stop stop-color="#1492A1"/>
<stop offset="0.476486" stop-color="#BBB272"/>
<stop offset="1" stop-color="#F4C245"/>
</linearGradient>
</defs>
</svg>
